<?xml version="1.0" encoding="UTF-8"?>
<svg width="12px" height="13px" viewBox="0 0 12 13" version="1.1" xmlns="http://www.w3.org/2000/svg" xmlns:xlink="http://www.w3.org/1999/xlink">
    <!-- Generator: Sketch 46.1 (44463) - http://www.bohemiancoding.com/sketch -->
    <title>点赞@3x</title>
    <desc>Created with Sketch.</desc>
    <defs></defs>
    <g id="Page-1" stroke="none" stroke-width="1" fill="none" fill-rule="evenodd">
        <g id="iPhone-7" transform="translate(-120.000000, -2165.000000)" fill-rule="nonzero" fill="#ED1B3A">
            <g id="Group-2" transform="translate(120.000000, 2165.000000)">
                <g id="点赞">
                    <path d="M11.1599236,5.10885417 L7.86775796,5.10885417 C9.14344586,0.257498843 6.98881529,0.00971990741 6.98881529,0.00971990741 C6.07561146,0.00971990741 6.2649172,0.753292824 6.19585987,0.877270833 C6.19585987,3.24979398 3.74858599,5.10887384 3.74858599,5.10887384 L3.74858599,11.836978 C3.74858599,12.5011192 4.62752866,12.7402998 4.97231847,12.7402998 L9.91880255,12.7402998 C10.3843376,12.7402998 10.7634268,11.4831655 10.7634268,11.4831655 C11.9871783,7.19833912 11.9871783,5.92345718 11.9871783,5.92345718 C11.9871975,5.03817824 11.1599236,5.10891319 11.1599236,5.10891319 L11.1599236,5.10891319 L11.1599236,5.10891319 L11.1599236,5.10885417 Z" id="Shape"></path>
                    <path d="M2.39755414,5.11107755 L0.426210191,5.11107755 C0.019089172,5.11107755 0.0128025478,5.52283565 0.0128025478,5.52283565 L0.419923567,12.3083542 C0.419923567,12.7402407 0.840057325,12.7402407 0.840057325,12.7402407 L2.54625478,12.7402407 C2.90170701,12.7402407 2.89855414,12.4545463 2.89855414,12.4545463 L2.89855414,5.62564236 C2.89855414,5.10450579 2.39751592,5.11109722 2.39751592,5.11109722 L2.39751592,5.11109722 L2.39751592,5.11109722 L2.39755414,5.11107755 Z" id="Shape"></path>
                </g>
            </g>
        </g>
    </g>
</svg>