<?xml version="1.0" encoding="UTF-8"?>
<svg width="16px" height="30px" viewBox="0 0 16 30" version="1.1" xmlns="http://www.w3.org/2000/svg" xmlns:xlink="http://www.w3.org/1999/xlink">
    <!-- Generator: Sketch 46.1 (44463) - http://www.bohemiancoding.com/sketch -->
    <title>箭头 copy@3x</title>
    <desc>Created with Sketch.</desc>
    <defs></defs>
    <g id="Page-1" stroke="none" stroke-width="1" fill="none" fill-rule="evenodd" opacity="0.442821558">
        <g id="iPhone-7" transform="translate(-8.000000, -2651.000000)" fill-rule="nonzero" fill="#B4B4B4">
            <g id="箭头-copy" transform="translate(16.000000, 2666.000000) scale(-1, 1) translate(-16.000000, -2666.000000) translate(8.000000, 2651.000000)">
                <path d="M15.6061058,14.3938942 C16.1312981,14.9190864 16.1312981,15.7702179 15.6061058,16.2953681 L2.29536809,29.6061058 C1.77017589,30.1312981 0.919044336,30.1312981 0.393894152,29.6061058 C-0.131298051,29.0809136 -0.131298051,28.2297821 0.393894152,27.7046319 L13.7046319,14.3938942 C14.2298241,13.8687019 15.0809557,13.8687019 15.6061058,14.3938942 Z" id="Shape"></path>
                <path d="M0.393894152,2.29536809 C-0.131298051,1.77017589 -0.131298051,0.919044336 0.393894152,0.393894152 L0.393894152,0.393894152 C0.919086355,-0.131298051 1.77021791,-0.131298051 2.29536809,0.393894152 L15.6061058,13.7046319 C16.1312981,14.2298241 16.1312981,15.0809557 15.6061058,15.6061058 L15.6061058,15.6061058 C15.0809136,16.1312981 14.2297821,16.1312981 13.7046319,15.6061058 L0.393894152,2.29536809 Z" id="Shape"></path>
            </g>
        </g>
    </g>
</svg>