<?xml version="1.0" encoding="UTF-8"?>
<svg width="37px" height="36px" viewBox="0 0 37 36" version="1.1" xmlns="http://www.w3.org/2000/svg" xmlns:xlink="http://www.w3.org/1999/xlink">
    <!-- Generator: Sketch 46.1 (44463) - http://www.bohemiancoding.com/sketch -->
    <title>开始@3x</title>
    <desc>Created with Sketch.</desc>
    <defs></defs>
    <g id="Page-1" stroke="none" stroke-width="1" fill="none" fill-rule="evenodd">
        <g id="iPhone-7" transform="translate(-263.000000, -2534.000000)" fill-rule="nonzero" fill="#FFFFFF">
            <g id="开始" transform="translate(263.000000, 2534.000000)">
                <path d="M18.5,0 C8.28095237,0 0,8.05714284 0,18 C0,27.9428572 8.28095237,36 18.5,36 C28.712522,36 37,27.9428572 37,18 C37,8.05714284 28.712522,0 18.5,0 Z M18.5,33.7650794 C9.55343917,33.7650794 2.29700177,26.7047619 2.29700177,17.9936508 C2.29700177,9.28888889 9.55343917,2.22222224 18.5,2.22222224 C27.4465608,2.22222224 34.7095238,9.28888889 34.7095238,17.9936508 C34.7029982,26.7047619 27.4465609,33.7650794 18.5,33.7650794 Z M13.8537919,24.7619048 L25.4301587,17.784127 L13.8537919,11.2571429 L13.8537919,24.7619048 Z" id="Shape"></path>
            </g>
        </g>
    </g>
</svg>