<?xml version="1.0" encoding="UTF-8"?>
<svg width="12px" height="11px" viewBox="0 0 12 11" version="1.1" xmlns="http://www.w3.org/2000/svg" xmlns:xlink="http://www.w3.org/1999/xlink">
    <!-- Generator: Sketch 46.1 (44463) - http://www.bohemiancoding.com/sketch -->
    <title>评论@3x</title>
    <desc>Created with Sketch.</desc>
    <defs></defs>
    <g id="Page-1" stroke="none" stroke-width="1" fill="none" fill-rule="evenodd">
        <g id="iPhone-7" transform="translate(-152.000000, -2168.000000)" fill-rule="nonzero" fill="#ED1B3A">
            <g id="Group-2" transform="translate(120.000000, 2165.000000)">
                <g id="评论" transform="translate(32.000000, 3.000000)">
                    <path d="M2.21818181,7.31001589 L1.85454545,7.31001589 L2.21818181,7.31001589 Z M2.72727273,4.7217806 L3.85454545,4.7217806 C4.14545453,4.7217806 4.39999999,4.47694753 4.4,4.19713831 C4.40000001,3.9173291 4.14545455,3.67249603 3.85454545,3.67249603 L2.72727273,3.67249603 C2.43636364,3.67249603 2.18181819,3.9173291 2.18181818,4.19713831 C2.18181816,4.47694753 2.39999999,4.7217806 2.72727273,4.7217806 Z M12,0.87440382 C11.9272727,0.384737688 11.4909091,0 10.9454545,0 L1.05454546,0 C0.472727268,1.89302734e-16 0,0.45468998 0,1.01430843 L0,7.34499205 C0.036363636,7.90461048 0.509090904,8.35930048 1.09090909,8.35930048 L3.27272727,8.35930048 C3.56363636,8.35930048 3.81818181,8.11446741 3.81818181,7.83465819 C3.81818181,7.55484897 3.56363636,7.31001591 3.27272727,7.31001589 L1.09090909,7.31001589 L1.09090909,1.64387917 C1.12727273,1.15421304 1.2,1.04928458 1.78181818,1.01430843 L10.1818182,1.01430843 L10.0727273,1.01430843 L10.8727273,1.01430843 L10.8727273,1.64387917 L10.8727273,1.01430843 L10.1454545,1.01430843 C10.7636364,1.01430843 10.8727273,1.11923689 10.8727273,1.78378378 L10.8727273,7.31001589 L5.96363636,7.31001589 C5.78181818,7.31001589 5.6,7.41494435 5.4909091,7.55484897 L2.83636364,10.1081081 C2.61818182,10.317965 2.61818182,10.6327504 2.83636364,10.8426073 C3.05454545,11.0524642 3.38181818,11.0524642 3.59999999,10.8426073 L6.18181818,8.35930048 L10.9090909,8.35930048 C11.4545454,8.35930048 11.9272727,7.93958665 12,7.41494435 L12,0.87440382 Z M1.09090909,1.04928458 L1.09090909,1.43402226 L1.09090909,1.04928458 L1.41818182,1.04928458 L1.09090909,1.04928458 Z M1.09090909,6.71542131 L1.09090909,6.26073133 L1.09090909,6.71542131 Z M9.81818182,7.31001589 L10.2181818,7.31001589 L9.81818182,7.31001589 Z M10.9090909,6.61049285 L10.9090909,6.26073133 L10.9090909,6.61049285 Z M10.9090909,6.61049285 C10.9090909,7.20508744 10.8,7.31001591 10.2181818,7.31001589 L10.8727273,7.31001589 L10.9090909,6.61049285 L10.9090909,6.61049285 Z M1.09090909,6.71542131 L1.09090909,7.31001589 L1.81818182,7.31001589 C1.23636364,7.31001589 1.12727273,7.24006359 1.09090909,6.71542131 Z M9.27272727,3.63751988 L8.14545455,3.63751988 C7.85454547,3.63751988 7.60000001,3.88235294 7.6,4.16216216 C7.59999999,4.44197138 7.85454545,4.68680445 8.14545455,4.68680445 L9.27272727,4.68680445 C9.56363636,4.68680445 9.81818181,4.44197138 9.81818182,4.16216216 C9.81818184,3.88235294 9.56363637,3.63751988 9.27272727,3.63751988 Z M6.54545454,4.68680445 C6.83636363,4.68680445 7.09090908,4.44197138 7.09090909,4.16216216 C7.09090911,3.88235294 6.83636364,3.63751988 6.54545454,3.63751988 L5.41818182,3.63751988 C5.12727274,3.63751988 4.87272728,3.88235294 4.87272727,4.16216216 C4.87272726,4.44197138 5.12727272,4.68680445 5.41818182,4.68680445 L6.54545454,4.68680445 L6.54545454,4.68680445 Z" id="Shape"></path>
                </g>
            </g>
        </g>
    </g>
</svg>